<?xml version="1.0" encoding="UTF-8"?>
<svg id="Cycle_3" data-name="Cycle 3" xmlns="http://www.w3.org/2000/svg" viewBox="0 0 123.29 22.99">
  <defs>
    <style>
      .cls-1 {
        fill: #71e67e;
      }

      .cls-2 {
        fill: none;
        stroke: #090909;
        stroke-linejoin: round;
        stroke-width: 3px;
      }

      .cls-3 {
        fill: #090909;
      }
    </style>
  </defs>
  <g>
    <path class="cls-2" d="M38.77,13.48c-2.62,2.5-8.57,7.66-13.2,7.66-1.85,0-2.35-.74-2.35-1.61,0-.79.46-1.73.46-1.8,0-.05-.02-.07-.07-.07-.12,0-.31.12-.31.12-1.7,1.27-5.69,2.74-8.02,2.74-1.87,0-2.52-.5-2.52-1.22,0-2.78,6.82-5.71,6.82-8.31,0-.5-.34-.67-.79-.67-.43,0-1.01.17-1.51.38,0,0-.43-.14-.43-.34,0-.1.07-.19.34-.31,1.78-.77,5.3-1.68,7.68-1.68,1.08,0,2.09.17,2.09,1.08,0,1.08-3.19,4.27-3.19,5.57,0,.36.24.58.82.58,2.09,0,5.35-7.08,7.8-7.08.38,0,3.24.84,3.24,1.85,0-.05-2.66,3.17-2.66,4.58,0,.41.22.65.77.65.67,0,3.31-1.46,3.58-2.28-.89-.26-1.25-.94-1.25-1.78,0-2.62,3.53-6.98,6.86-6.98,1.46,0,2.04.55,2.04,1.37,0,1.73-2.52,4.66-4.54,6.26.31.19,1.03-.1,1.03.41,0,.17-.07.31-.22.36-.77.26-1.61.48-2.45.53Z"/>
    <path class="cls-2" d="M53.4,15.08s.12-.1.26-.1c.19,0,.34.22.34.36,0,.07-.02.17-.07.22-1.7,2.14-5.74,5.5-9.29,5.5-2.95,0-4.25-1.44-4.25-3.34,0-3.74,4.97-9.31,11.78-9.31,1.73,0,2.5.67,2.5,1.61,0,1.9-3.1,4.9-8.04,6.29.29.67,1.01,1.1,2.4,1.1s3.02-.84,4.37-2.33ZM49.85,9.88c-.82,0-3.38,3.31-3.38,5.54v.24c2.09-1.1,3.89-3.94,3.89-5.18,0-.36-.14-.6-.5-.6Z"/>
    <path class="cls-2" d="M66.55,15.08s.12-.1.26-.1c.19,0,.34.22.34.36,0,.07-.02.17-.07.22-1.7,2.14-6.74,5.5-10.29,5.5-2.95,0-4.25-1.44-4.25-3.34,0-3.74,4.97-9.31,11.79-9.31,1.73,0,2.5.67,2.5,1.61,0,1.9-3.1,4.9-8.04,6.29.29.67,1.01,1.1,2.4,1.1s4.02-.84,5.37-2.33ZM62,9.88c-.82,0-3.38,3.31-3.38,5.54v.24c2.09-1.1,3.89-3.94,3.89-5.18,0-.36-.14-.6-.5-.6Z"/>
    <path class="cls-2" d="M78.91,9.4c-.24,0-4.92,5.18-4.92,7.2,0,.48.29.79.96.79.96,0,4.47-1.1,5.53-2.28,0,0,.1-.12.24-.12.19,0,.34.22.34.36,0,.07-.02.17-.07.22-2.04,3.02-11.36,5.93-15.13,5.93-1.39,0-2.3-.38-2.3-1.32,0-3.12,8.07-10.32,8.09-10.1,0-.05-.02-.1-.22-.1-.36,0-2.76.67-3.26.67-.26,0-.43-.1-.43-.29,0-.05.02-.12.1-.19.31-.38,1.58-1.32,1.97-1.37.38-.05,3.17-.5,3.5-.5,2.18-2.4,4.25-4.73,5.52-6.14,0,0,.58-.65,1.42-.65.65,0,4.1.34,4.1,1.13,0,.22-.1.48-.24.62-1.37,1.99-2.95,3.62-2.95,4.06,0,.07.02.12.19.12,1.01-.07,2.12-1.58,4.12-1.58.05,0,36.35.2,36.34.24-.12.45-2.63.93-4,1l-38.88,2.3Z"/>
  </g>
  <g>
    <g>
      <path class="cls-1" d="M5.12,21.88c-1.92,0-3.37-.6-4.17-1.73-.08-.11-.2-.3-.2-.55,0-.81,1.02-1.13,1.45-1.13.27,0,.51.07.71.2.26.18.5.26.81.26,1.28,0,2.63-1.93,2.63-2.97,0-.5-.03-.53-.08-.58-.56-.56-.73-.57-.73-.57-.04,0-.16.04-.25.08-.35.12-.72.38-1.02.59-.43.3-.72.5-1.07.5-.22,0-.49-.12-.63-.29-.09-.11-.31-.38-.17-1.16.13-.63,1.73-2.1,2.18-2.33l9.52-5.12c.07-.04.13-.06.21-.08.12-.02.24-.04.38-.04.87,0,2.13.53,2.13,1.49s-.99,1.14-1.71,1.3c-.35.07-1.16.25-1.16.44,0,.46.17,1.04.35,1.66.23.79.49,1.7.49,2.66,0,.41-.05.81-.14,1.19.37-.3.76-.67,1.14-1.09.03-.03.06-.06.09-.09.08-.06.35-.26.73-.26.64,0,1.09.58,1.09,1.11,0,.11-.02.48-.29.75-.56.71-1.5,1.6-2.59,2.44-2.16,1.65-6.36,3.35-9.65,3.35Z"/>
      <path class="cls-3" d="M14.66,7.69c.59,0,1.38.36,1.38.74,0,.77-2.87.34-2.87,1.74,0,1.22.84,2.71.84,4.32,0,.94-.29,1.92-1.2,2.9.96,0,2.45-1.13,3.5-2.3,0,0,.12-.1.26-.1.19,0,.34.22.34.36,0,.07-.02.17-.07.22-.58.72-1.46,1.56-2.52,2.38-2.02,1.54-6.07,3.19-9.19,3.19-1.54,0-2.86-.41-3.58-1.44-.02-.02-.05-.07-.05-.1,0-.19.48-.38.7-.38.12,0,.22.02.29.07.41.29.82.38,1.22.38,1.8,0,3.38-2.38,3.38-3.72,0-.58-.03-.84-.3-1.11-.62-.62-.96-.79-1.26-.79-.19,0-.36.07-.57.14-.7.25-1.53,1.02-1.78,1.02-.02,0-.04,0-.05-.02-.09-.11,0-.55,0-.55.05-.24,1.34-1.57,1.78-1.79l9.53-5.13c.07-.01.15-.02.23-.02M14.66,6.19c-.18,0-.36.02-.52.05-.15.03-.28.08-.42.15l-9.53,5.13c-.49.25-2.33,1.84-2.54,2.81-.14.8-.04,1.38.32,1.81.3.36.74.57,1.21.57.58,0,1-.29,1.49-.63.22-.15.55-.38.75-.46.05.04.1.09.17.15,0,.05,0,.11,0,.18,0,.7-1.08,2.22-1.88,2.22-.15,0-.24-.03-.36-.11-.35-.23-.74-.35-1.15-.35-.92,0-2.2.65-2.2,1.88,0,.45.19.8.35,1,.67.94,2.05,2.04,4.78,2.04,3.45,0,7.84-1.78,10.1-3.5,1.13-.87,2.1-1.79,2.76-2.6.27-.32.42-.74.42-1.18,0-1.01-.84-1.86-1.84-1.86-.51,0-.89.21-1.1.35-.08-.81-.3-1.55-.49-2.22-.11-.37-.21-.73-.27-1.04.17-.05.37-.09.52-.12.75-.16,2.31-.49,2.31-2.03,0-1.46-1.67-2.24-2.88-2.24h0Z"/>
    </g>
    <path class="cls-1" d="M38.77,13.48c-2.62,2.5-8.57,7.66-13.2,7.66-1.85,0-2.35-.74-2.35-1.61,0-.79.46-1.73.46-1.8,0-.05-.02-.07-.07-.07-.12,0-.31.12-.31.12-1.7,1.27-5.69,2.74-8.02,2.74-1.87,0-2.52-.5-2.52-1.22,0-2.78,6.82-5.71,6.82-8.31,0-.5-.34-.67-.79-.67-.43,0-1.01.17-1.51.38,0,0-.43-.14-.43-.34,0-.1.07-.19.34-.31,1.78-.77,5.3-1.68,7.68-1.68,1.08,0,2.09.17,2.09,1.08,0,1.08-3.19,4.27-3.19,5.57,0,.36.24.58.82.58,2.09,0,5.35-7.08,7.8-7.08.38,0,3.24.84,3.24,1.85,0-.05-2.66,3.17-2.66,4.58,0,.41.22.65.77.65.67,0,3.31-1.46,3.58-2.28-.89-.26-1.25-.94-1.25-1.78,0-2.62,3.53-6.98,6.86-6.98,1.46,0,2.04.55,2.04,1.37,0,1.73-2.52,4.66-4.54,6.26.31.19,1.03-.1,1.03.41,0,.17-.07.31-.22.36-.77.26-1.61.48-2.45.53Z"/>
    <path class="cls-1" d="M53.4,15.08s.12-.1.26-.1c.19,0,.34.22.34.36,0,.07-.02.17-.07.22-1.7,2.14-5.74,5.5-9.29,5.5-2.95,0-4.25-1.44-4.25-3.34,0-3.74,4.97-9.31,11.78-9.31,1.73,0,2.5.67,2.5,1.61,0,1.9-3.1,4.9-8.04,6.29.29.67,1.01,1.1,2.4,1.1s3.02-.84,4.37-2.33ZM49.85,9.88c-.82,0-3.38,3.31-3.38,5.54v.24c2.09-1.1,3.89-3.94,3.89-5.18,0-.36-.14-.6-.5-.6Z"/>
    <path class="cls-1" d="M66.55,15.08s.12-.1.26-.1c.19,0,.34.22.34.36,0,.07-.02.17-.07.22-1.7,2.14-6.74,5.5-10.29,5.5-2.95,0-4.25-1.44-4.25-3.34,0-3.74,4.97-9.31,11.79-9.31,1.73,0,2.5.67,2.5,1.61,0,1.9-3.1,4.9-8.04,6.29.29.67,1.01,1.1,2.4,1.1s4.02-.84,5.37-2.33ZM62,9.88c-.82,0-3.38,3.31-3.38,5.54v.24c2.09-1.1,3.89-3.94,3.89-5.18,0-.36-.14-.6-.5-.6Z"/>
    <path class="cls-1" d="M78.91,9.4c-.24,0-4.92,5.18-4.92,7.2,0,.48.29.79.96.79.96,0,4.47-1.1,5.53-2.28,0,0,.1-.12.24-.12.19,0,.34.22.34.36,0,.07-.02.17-.07.22-2.04,3.02-11.36,5.93-15.13,5.93-1.39,0-2.3-.38-2.3-1.32,0-3.12,8.07-10.32,8.09-10.1,0-.05-.02-.1-.22-.1-.36,0-2.76.67-3.26.67-.26,0-.43-.1-.43-.29,0-.05.02-.12.1-.19.31-.38,1.58-1.32,1.97-1.37.38-.05,3.17-.5,3.5-.5,2.18-2.4,4.25-4.73,5.52-6.14,0,0,.58-.65,1.42-.65.65,0,4.1.34,4.1,1.13,0,.22-.1.48-.24.62-1.37,1.99-2.95,3.62-2.95,4.06,0,.07.02.12.19.12,1.01-.07,2.12-1.58,4.12-1.58.05,0,36.35.2,36.34.24-.12.45-2.63.93-4,1l-38.88,2.3Z"/>
  </g>
</svg>